<svg width="39" height="36" viewBox="0 0 39 36" fill="none" xmlns="http://www.w3.org/2000/svg">
<g id="Subtract" filter="url(#filter0_d_3431_32969)">
<path fill-rule="evenodd" clip-rule="evenodd" d="M24 4.5H31.5C31.8978 4.5 32.2794 4.65804 32.5607 4.93934C32.842 5.22064 33 5.60218 33 6V22.5C33 22.8978 32.842 23.2794 32.5607 23.5607C32.2794 23.842 31.8978 24 31.5 24H7.5C7.10218 24 6.72064 23.842 6.43934 23.5607C6.15804 23.2794 6 22.8978 6 22.5V6C6 5.60218 6.15804 5.22064 6.43934 4.93934C6.72064 4.65804 7.10218 4.5 7.5 4.5H15V1.5C15 1.10218 15.158 0.720645 15.4393 0.43934C15.7206 0.158036 16.1022 0 16.5 0H22.5C22.8978 0 23.2794 0.158036 23.5607 0.43934C23.842 0.720645 24 1.10218 24 1.5V4.5ZM22.5 1.5H16.5V4.5H22.5V1.5ZM15.28 9.45228L18.255 13.7398L15 18.4998H17.7825L19.6725 15.6473L21.5625 18.4998H24.3975L21.055 13.6873L24.03 9.45228H21.2825L19.7075 11.8148L18.115 9.45228H15.28Z" fill="white"/>
</g>
<defs>
<filter id="filter0_d_3431_32969" x="0" y="0" width="39" height="36" filterUnits="userSpaceOnUse" color-interpolation-filters="sRGB">
<feFlood flood-opacity="0" result="BackgroundImageFix"/>
<feColorMatrix in="SourceAlpha" type="matrix" values="0 0 0 0 0 0 0 0 0 0 0 0 0 0 0 0 0 0 127 0" result="hardAlpha"/>
<feOffset dy="6"/>
<feGaussianBlur stdDeviation="3"/>
<feComposite in2="hardAlpha" operator="out"/>
<feColorMatrix type="matrix" values="0 0 0 0 1 0 0 0 0 1 0 0 0 0 1 0 0 0 0.25 0"/>
<feBlend mode="normal" in2="BackgroundImageFix" result="effect1_dropShadow_3431_32969"/>
<feBlend mode="normal" in="SourceGraphic" in2="effect1_dropShadow_3431_32969" result="shape"/>
</filter>
</defs>
</svg>
