<svg width="25" height="25" viewBox="0 0 25 25" fill="none" xmlns="http://www.w3.org/2000/svg" >
<path d="M19.5155 24.2384C19.1794 24.2384 18.9074 23.9665 18.9074 23.6304C18.9074 22.6155 17.4496 21.0585 15.0945 20.3133C14.8665 20.2414 14.702 20.0419 14.6741 19.8044C14.6462 19.5669 14.7602 19.3353 14.9651 19.2124C16.4502 18.3216 17.3368 16.7629 17.3368 15.0414C17.3368 12.3591 15.1545 10.1768 12.4722 10.1768C9.78994 10.1768 7.60766 12.3591 7.60766 15.0414C7.60766 16.7629 8.49423 18.3216 9.97877 19.2124C10.1836 19.3353 10.2977 19.5669 10.2697 19.8044C10.2418 20.0419 10.0773 20.2414 9.84932 20.3133C7.49424 21.0585 6.03702 22.6149 6.03702 23.6304C6.03702 23.9665 5.76505 24.2384 5.42895 24.2384C5.09285 24.2384 4.82088 23.9665 4.82088 23.6304C4.82088 22.131 6.27811 20.5247 8.4105 19.5627C7.12964 18.4214 6.39152 16.7991 6.39152 15.0414C6.39152 11.6887 9.11952 8.9607 12.4722 8.9607C15.8249 8.9607 18.5529 11.6887 18.5529 15.0414C18.5529 16.7991 17.8142 18.4214 16.5333 19.5633C18.6663 20.5247 20.1235 22.131 20.1235 23.6304C20.1235 23.9665 19.8516 24.2384 19.5155 24.2384ZM11.2454 7.4631L12.4722 6.8188L13.6984 7.4631C14.0767 7.66262 14.525 7.62936 14.8695 7.37937C15.2145 7.12878 15.3843 6.71192 15.3118 6.29149L15.0773 4.92512L16.0696 3.95839C16.3754 3.66148 16.4834 3.22502 16.3516 2.81944C16.2204 2.41327 15.876 2.12349 15.4538 2.06233L14.0826 1.86281L13.4692 0.619351C13.2804 0.236933 12.898 0 12.4722 0C12.4716 0 12.4716 0 12.471 0C12.0453 0 11.6634 0.237527 11.4752 0.619945L10.8618 1.86281L9.49066 2.06233C9.06845 2.12349 8.72404 2.41327 8.5928 2.81944C8.46098 3.22502 8.56905 3.66148 8.86893 3.95245L9.84101 4.92512L9.63258 6.29149C9.56013 6.71192 9.72997 7.12878 10.075 7.37937C10.2697 7.5207 10.4978 7.59255 10.727 7.59255C10.9039 7.59255 11.0815 7.54979 11.2454 7.4631ZM11.3529 3.02015C11.5512 2.99165 11.7222 2.86695 11.8107 2.68762L12.4722 1.34737L13.1337 2.68762C13.2222 2.86695 13.3932 2.99165 13.5916 3.02015L15.069 3.23512L13.9995 4.27786C13.8564 4.41741 13.7911 4.61871 13.8249 4.81586L14.0773 6.28853L12.7549 5.59376C12.5779 5.49994 12.3665 5.49994 12.1896 5.59376L10.863 6.2909L11.0898 4.80458C11.1189 4.61337 11.0554 4.41919 10.9188 4.28261L9.87189 3.23571L11.3529 3.02015ZM9.72284 3.08666L9.72403 3.08785C9.72343 3.08726 9.72343 3.08726 9.72284 3.08666ZM21.5778 11.5391L22.4341 10.4494L23.8177 10.5361C24.2387 10.5646 24.6389 10.3496 24.8515 9.98029C25.0635 9.61034 25.0475 9.16082 24.81 8.8075L24.038 7.65609L24.5481 6.3681C24.7048 5.97202 24.6253 5.52963 24.3397 5.21312C24.054 4.89662 23.6229 4.77073 23.2102 4.8889L21.8771 5.26775L20.81 4.38534C20.481 4.11278 20.0363 4.05221 19.6467 4.2262C19.2572 4.40019 19.0054 4.7737 18.99 5.20006L18.9383 6.58484L17.7679 7.32711C17.408 7.55573 17.2127 7.96071 17.2584 8.38411C17.3041 8.80809 17.5808 9.1626 17.9739 9.3069L19.259 9.7962L19.6271 11.1287C19.7328 11.5414 20.057 11.8526 20.4745 11.9405C20.5523 11.9571 20.6301 11.9648 20.7073 11.9648C21.044 11.9648 21.364 11.8122 21.5778 11.5391ZM20.8023 10.8158L20.8017 10.8146C20.8023 10.8152 20.8023 10.8158 20.8023 10.8158ZM19.8599 7.44053C20.0285 7.33305 20.1342 7.14956 20.1414 6.94944L20.1972 5.45659L21.348 6.40848C21.5024 6.53615 21.7108 6.57831 21.902 6.52486L23.3397 6.11632L22.7898 7.50585C22.7162 7.69172 22.7387 7.90252 22.8504 8.0682L23.6823 9.30927L22.1912 9.21545C21.9929 9.20476 21.7981 9.28908 21.6752 9.44704L20.7494 10.6252L20.3492 9.17566C20.2975 8.98921 20.1604 8.83838 19.9798 8.76949L18.5957 8.24218L19.8599 7.44053ZM18.4015 8.16855L18.4003 8.16796C18.4003 8.16796 18.4009 8.16796 18.4015 8.16855ZM4.01922 11.8651C4.44558 11.8532 4.82088 11.6056 4.99902 11.2184L5.57799 9.9595L6.94437 9.72316C7.3642 9.65012 7.7003 9.35084 7.82084 8.9417C7.94139 8.53256 7.82144 8.09907 7.50849 7.81107L6.4895 6.87047L6.68725 5.49875C6.74781 5.07654 6.5667 4.66503 6.21516 4.42394C5.86362 4.18166 5.41469 4.16088 5.04237 4.37109L3.83395 5.04923L2.58991 4.4376C2.20571 4.24876 1.75916 4.29389 1.42246 4.55399C1.08399 4.81348 0.92603 5.2345 1.00916 5.65373L1.28054 7.01239L0.314992 8.00644C0.0180833 8.31225 -0.0775213 8.75227 0.0649949 9.15369C0.208105 9.55511 0.559645 9.8354 0.975317 9.88409L2.33813 10.0616L3.00617 11.273C3.19976 11.6406 3.57445 11.8657 3.98835 11.8657C3.99844 11.8657 4.00913 11.8657 4.01922 11.8651ZM4.07623 10.6958L4.07564 10.6946C4.07564 10.6946 4.07564 10.6952 4.07623 10.6958ZM2.37613 7.62996C2.51508 7.48685 2.57506 7.28376 2.53587 7.08721L2.24312 5.62226L3.58396 6.2814C3.76448 6.36988 3.97588 6.36394 4.14986 6.26596L5.45329 5.53497L5.24011 7.01358C5.21161 7.21191 5.28287 7.41143 5.42954 7.54682L6.5281 8.56106L5.05544 8.81581C4.85829 8.84966 4.69083 8.97911 4.6071 9.16082L3.98063 10.5224L3.25498 9.20536C3.16175 9.03552 2.99311 8.92092 2.80071 8.89598L1.3322 8.70477L2.37613 7.62996ZM1.12436 8.67745H1.12674C1.12615 8.67745 1.12555 8.67745 1.12436 8.67745Z" fill="white" stroke="white" stroke-width="0.4"/>
</svg>
