<svg width="21" height="23" viewBox="0 0 21 23" fill="none" xmlns="http://www.w3.org/2000/svg">
<path fill-rule="evenodd" clip-rule="evenodd" d="M7.24099 19.43C3.29587 18.0558 0.466797 14.3508 0.466797 10C0.466797 4.48083 5.0199 0 10.6281 0C16.2363 0 20.7894 4.48083 20.7894 10C20.7894 13.1125 19.2482 16.2692 16.3514 18.1908C14.1473 19.6525 11.4283 21.3825 9.84905 22.38C9.32829 22.7092 8.66611 22.7325 8.12248 22.44C7.57885 22.1483 7.24099 21.5875 7.24099 20.9775V19.43ZM8.93454 18.8208V20.9775C10.5062 19.985 13.2116 18.2633 15.4047 16.8092C17.813 15.2117 19.0958 12.5875 19.0958 10C19.0958 5.40083 15.3014 1.66667 10.6281 1.66667C5.95474 1.66667 2.16035 5.40083 2.16035 10C2.16035 13.8117 4.76587 17.0292 8.31893 18.0192C8.68305 18.1208 8.93454 18.4483 8.93454 18.8208ZM10.4537 14.8275C10.9211 14.8275 11.3004 15.2008 11.3004 15.6608C11.3004 16.1208 10.9211 16.4942 10.4537 16.4942C9.98623 16.4942 9.60688 16.1208 9.60688 15.6608C9.60688 15.2008 9.98623 14.8275 10.4537 14.8275ZM11.2945 13.1633C11.2945 13.1633 11.292 13.2208 11.2894 13.255C11.2674 13.6108 10.9109 13.9933 10.468 13.9933C10.0811 13.9933 9.79317 13.785 9.65853 13.4617C9.6018 13.3267 9.60095 13.1608 9.60095 13.1608V12.7083C9.60095 10.9517 10.4071 10.0975 11.2767 9.39916C11.546 9.18333 11.8212 8.98667 12.0642 8.77C12.3047 8.55417 12.5164 8.32083 12.5757 7.96333C12.6722 7.3875 12.5799 6.93667 12.3521 6.60417C12.0092 6.10417 11.4012 5.87833 10.8787 5.84166C8.81514 5.69666 8.32994 7.67417 8.32994 7.67417C8.22071 8.12167 7.7626 8.39666 7.30873 8.28916C6.85401 8.18083 6.57458 7.73084 6.68381 7.28334C6.68381 7.28334 7.50518 3.93333 10.9998 4.17917C11.9872 4.24833 13.1074 4.72667 13.7552 5.67167C14.1879 6.3025 14.4293 7.14417 14.2472 8.23334C14.0838 9.21084 13.4792 9.80666 12.7586 10.3692C12.1006 10.8825 11.2945 11.3617 11.2945 12.7083V13.1633Z" fill="white"/>
</svg>
