<svg width="23" height="18" viewBox="0 0 23 18" fill="none" xmlns="http://www.w3.org/2000/svg">
<path fill-rule="evenodd" clip-rule="evenodd" d="M13.1513 2.58602C13.1776 2.65976 13.2693 2.68715 13.3335 2.64185C13.6959 2.39326 14.1341 2.24685 14.607 2.24685C15.8479 2.24685 16.8539 3.25283 16.8539 4.49368C16.8539 5.73561 15.8479 6.74156 14.607 6.74156C14.1341 6.74156 13.6959 6.59515 13.3335 6.34548C13.2693 6.30124 13.1776 6.32863 13.1513 6.40237C12.9237 7.03332 12.5856 7.61164 12.1621 8.11411C12.1179 8.16572 12.1284 8.24367 12.1853 8.28054C12.8837 8.72823 13.7148 8.9884 14.607 8.9884C17.0888 8.9884 19.1018 6.97648 19.1018 4.49366C19.1018 2.01193 17.0888 0 14.607 0C13.7148 0 12.8837 0.25913 12.1853 0.707865C12.1284 0.743679 12.1179 0.822683 12.1621 0.874299C12.5856 1.37676 12.9237 1.95504 13.1513 2.58602Z" fill="white"/>
<path fill-rule="evenodd" clip-rule="evenodd" d="M7.86583 6.74157C9.10672 6.74157 10.1127 5.7356 10.1127 4.49369C10.1127 3.25281 9.10669 2.24686 7.86583 2.24686C6.62498 2.24686 5.619 3.25284 5.619 4.49369C5.619 5.73562 6.62498 6.74157 7.86583 6.74157ZM7.86583 8.9884C10.3476 8.9884 12.3606 6.97648 12.3606 4.49366C12.3606 2.01193 10.3476 0 7.86583 0C5.38407 0 3.37109 2.01193 3.37109 4.49366C3.37109 6.97645 5.38407 8.9884 7.86583 8.9884Z" fill="white"/>
<path fill-rule="evenodd" clip-rule="evenodd" d="M13.2546 10.3797C13.165 10.3228 13.1935 10.1827 13.2999 10.1712C13.7107 10.1248 14.1468 10.1006 14.6082 10.1006C18.3602 10.1006 20.4164 11.707 21.473 13.4598C21.9786 14.3025 22.2261 15.1346 22.3494 15.7519C22.4168 16.1227 22.4505 16.4829 22.4621 16.8537L22.4726 16.8643V17.6511C22.4726 17.8418 22.3273 17.9882 22.1355 17.9882H20.5629C20.3722 17.9882 20.2258 17.8418 20.2258 17.6511V17.5163C20.2268 17.0665 20.2279 16.6188 20.1362 16.1796C20.0235 15.6287 19.8213 15.1009 19.5401 14.629C18.9807 13.6989 17.8778 12.635 15.535 12.4127C15.436 12.4032 15.3444 12.3516 15.2843 12.2705C14.7629 11.5658 14.0941 10.9138 13.2546 10.3797Z" fill="white"/>
<path fill-rule="evenodd" clip-rule="evenodd" d="M15.7214 16.8644C15.7098 16.4936 15.6761 16.1344 15.6087 15.7636C15.4854 15.1453 15.2379 14.3142 14.7323 13.4715C13.6757 11.7187 11.6195 10.1123 7.86745 10.1123C4.11428 10.1123 2.0581 11.7187 1.01316 13.4831C0.507541 14.3258 0.259991 15.1569 0.136755 15.7752C0.0693392 16.0891 0.0472189 16.3483 0.024044 16.5389C-0.00966385 16.9097 0.00192323 17.2805 0.00192323 17.6629C0.00192323 17.8535 0.148342 17.9999 0.339002 17.9999H1.91168C2.10339 17.9999 2.24875 17.8535 2.24875 17.6629C2.24875 17.1678 2.24875 16.6622 2.33935 16.1681C2.61955 14.7861 3.48541 13.5947 4.76631 12.988C5.72068 12.5277 6.8109 12.3812 7.86743 12.3812C10.8558 12.3812 12.1704 13.5947 12.7993 14.6397C13.0806 15.1116 13.2828 15.6404 13.3955 16.1902C13.4966 16.6737 13.485 17.1678 13.485 17.6628C13.485 17.8535 13.6315 17.9999 13.8221 17.9999H15.3948C15.5865 17.9999 15.7319 17.8535 15.7319 17.6628V16.876L15.7214 16.8644Z" fill="white"/>
</svg>
