<svg viewBox="0 0 300 310" xmlns="http://www.w3.org/2000/svg" font-family="sans-serif">
  <text x="150" y="18" text-anchor="middle" font-size="11" fill="#5A6E75">Study positions for 30 seconds, then recall</text>
  <!-- 4x4 grid -->
  <!-- Row 1 -->
  <!-- R1C1: Om -->
  <rect x="10" y="26" width="64" height="64" rx="6" fill="#EEF7F7" stroke="#0E7C7B" stroke-width="2"/>
  <text x="42" y="68" text-anchor="middle" font-size="36" fill="#1B3A5C">🕉</text>

  <!-- R1C2: Lotus -->
  <rect x="82" y="26" width="64" height="64" rx="6" fill="#EEF7F7" stroke="#0E7C7B" stroke-width="2"/>
  <text x="114" y="68" text-anchor="middle" font-size="36" fill="#1B3A5C">🌸</text>

  <!-- R1C3: empty -->
  <rect x="154" y="26" width="64" height="64" rx="6" fill="#F4F8FA" stroke="#C8D8DC" stroke-width="1"/>

  <!-- R1C4: Chakra -->
  <rect x="226" y="26" width="64" height="64" rx="6" fill="#EEF7F7" stroke="#0E7C7B" stroke-width="2"/>
  <text x="258" y="68" text-anchor="middle" font-size="36" fill="#1B3A5C">☸</text>

  <!-- Row 2 -->
  <!-- R2C1: empty -->
  <rect x="10" y="98" width="64" height="64" rx="6" fill="#F4F8FA" stroke="#C8D8DC" stroke-width="1"/>

  <!-- R2C2: Peacock -->
  <rect x="82" y="98" width="64" height="64" rx="6" fill="#EEF7F7" stroke="#0E7C7B" stroke-width="2"/>
  <text x="114" y="140" text-anchor="middle" font-size="36" fill="#1B3A5C">🦚</text>

  <!-- R2C3: Sun -->
  <rect x="154" y="98" width="64" height="64" rx="6" fill="#EEF7F7" stroke="#0E7C7B" stroke-width="2"/>
  <text x="186" y="140" text-anchor="middle" font-size="36" fill="#1B3A5C">☀</text>

  <!-- R2C4: empty -->
  <rect x="226" y="98" width="64" height="64" rx="6" fill="#F4F8FA" stroke="#C8D8DC" stroke-width="1"/>

  <!-- Row 3 -->
  <!-- R3C1: Tiger -->
  <rect x="10" y="170" width="64" height="64" rx="6" fill="#EEF7F7" stroke="#0E7C7B" stroke-width="2"/>
  <text x="42" y="212" text-anchor="middle" font-size="36" fill="#1B3A5C">🐯</text>

  <!-- R3C2: empty -->
  <rect x="82" y="170" width="64" height="64" rx="6" fill="#F4F8FA" stroke="#C8D8DC" stroke-width="1"/>

  <!-- R3C3: empty -->
  <rect x="154" y="170" width="64" height="64" rx="6" fill="#F4F8FA" stroke="#C8D8DC" stroke-width="1"/>

  <!-- R3C4: Crescent -->
  <rect x="226" y="170" width="64" height="64" rx="6" fill="#EEF7F7" stroke="#0E7C7B" stroke-width="2"/>
  <text x="258" y="212" text-anchor="middle" font-size="36" fill="#1B3A5C">🌙</text>

  <!-- Row 4 -->
  <!-- R4C1: empty -->
  <rect x="10" y="242" width="64" height="64" rx="6" fill="#F4F8FA" stroke="#C8D8DC" stroke-width="1"/>

  <!-- R4C2: Star -->
  <rect x="82" y="242" width="64" height="64" rx="6" fill="#EEF7F7" stroke="#0E7C7B" stroke-width="2"/>
  <text x="114" y="284" text-anchor="middle" font-size="36" fill="#1B3A5C">⭐</text>

  <!-- R4C3: empty -->
  <rect x="154" y="242" width="64" height="64" rx="6" fill="#F4F8FA" stroke="#C8D8DC" stroke-width="1"/>

  <!-- R4C4: empty -->
  <rect x="226" y="242" width="64" height="64" rx="6" fill="#F4F8FA" stroke="#C8D8DC" stroke-width="1"/>

  <text x="150" y="300" text-anchor="middle" font-size="9" fill="#0E7C7B">8 symbols · Score 1 pt per correct position</text>
</svg>
