<svg width="62" height="48" viewBox="0 0 62 48" fill="none" xmlns="http://www.w3.org/2000/svg">
<g id="Vector" filter="url(#filter0_d_935_22870)">
<path d="M41.2857 18.8571V22H22.4286V18.8571C22.4286 18.8571 22.4286 12.5714 31.8571 12.5714C41.2857 12.5714 41.2857 18.8571 41.2857 18.8571ZM36.5714 4.71429C36.5714 3.78189 36.2949 2.87043 35.7769 2.09517C35.2589 1.31991 34.5226 0.715669 33.6612 0.358856C32.7998 0.00204264 31.8519 -0.0913159 30.9374 0.0905858C30.0229 0.272488 29.1829 0.721479 28.5236 1.38078C27.8643 2.04009 27.4153 2.88009 27.2334 3.79458C27.0515 4.70906 27.1449 5.65694 27.5017 6.51837C27.8585 7.37979 28.4628 8.11606 29.238 8.63407C30.0133 9.15208 30.9247 9.42857 31.8571 9.42857C33.1074 9.42857 34.3065 8.93189 35.1906 8.04779C36.0747 7.16369 36.5714 5.96459 36.5714 4.71429ZM41.6 12.6657C42.459 13.4582 43.1515 14.4138 43.6372 15.4769C44.1228 16.5399 44.3919 17.689 44.4286 18.8571V22H49.1429V18.8571C49.1429 18.8571 49.1429 13.4357 41.6 12.6657ZM39.7143 1.79322e-06C39.2395 0.000285928 38.7677 0.0745084 38.3157 0.220002C39.2351 1.53838 39.728 3.107 39.728 4.71429C39.728 6.32157 39.2351 7.89019 38.3157 9.20857C38.7677 9.35406 39.2395 9.42829 39.7143 9.42857C40.9646 9.42857 42.1637 8.93189 43.0478 8.04779C43.9319 7.16369 44.4286 5.96459 44.4286 4.71429C44.4286 3.46398 43.9319 2.26488 43.0478 1.38078C42.1637 0.496684 40.9646 1.79322e-06 39.7143 1.79322e-06ZM22.9629 6.16L24.7857 8.37572L17.3214 15.84L13 11.1257L14.8229 9.30286L17.3214 11.7857L22.9629 6.16Z" fill="#2B9FFF"/>
</g>
<defs>
<filter id="filter0_d_935_22870" x="0.243698" y="0" width="61.6557" height="47.5126" filterUnits="userSpaceOnUse" color-interpolation-filters="sRGB">
<feFlood flood-opacity="0" result="BackgroundImageFix"/>
<feColorMatrix in="SourceAlpha" type="matrix" values="0 0 0 0 0 0 0 0 0 0 0 0 0 0 0 0 0 0 127 0" result="hardAlpha"/>
<feOffset dy="12.7563"/>
<feGaussianBlur stdDeviation="6.37815"/>
<feComposite in2="hardAlpha" operator="out"/>
<feColorMatrix type="matrix" values="0 0 0 0 0.168627 0 0 0 0 0.623529 0 0 0 0 1 0 0 0 0.25 0"/>
<feBlend mode="normal" in2="BackgroundImageFix" result="effect1_dropShadow_935_22870"/>
<feBlend mode="normal" in="SourceGraphic" in2="effect1_dropShadow_935_22870" result="shape"/>
</filter>
</defs>
</svg>
