<svg width="19" height="25" viewBox="0 0 19 25" fill="none" xmlns="http://www.w3.org/2000/svg">
<path d="M3.4227 20.0076C2.72397 20.0076 2.15625 19.4399 2.15625 18.7412V3.248L3.49438 4.28044C3.79761 4.51445 4.22195 4.51527 4.52518 4.27962L6.69965 2.59871L8.87247 4.27962C9.17734 4.51527 9.60168 4.51527 9.90491 4.27962L12.0786 2.59871L14.2448 4.27879C14.5497 4.51445 14.974 4.51527 15.2789 4.27962L16.6079 3.2513V12.6924C16.6079 12.9678 16.7482 13.2006 16.952 13.3545C17.0933 13.4613 17.2607 13.5361 17.4517 13.5361C17.9181 13.5361 18.2954 13.1588 18.2954 12.6924V1.53166C18.2954 1.20949 18.1125 0.916153 17.8233 0.774429C17.5357 0.631882 17.1897 0.668137 16.9351 0.864243L14.7631 2.54515L12.5968 0.865067C12.292 0.62941 11.8668 0.628586 11.5636 0.864243L9.3891 2.54515L7.21628 0.864243C6.91141 0.628586 6.48706 0.628586 6.18384 0.864243L4.00854 2.54597L1.82748 0.863419C1.5737 0.666489 1.2301 0.63353 0.940063 0.774429C0.651672 0.916153 0.46875 1.21031 0.46875 1.53166V18.7412C0.46875 20.3702 1.7937 21.6951 3.4227 21.6951H11.2917C11.758 21.6951 12.1354 21.3178 12.1354 20.8514C12.1354 20.5761 11.9952 20.3433 11.7916 20.1893C11.6502 20.0825 11.4827 20.0076 11.2917 20.0076H3.4227Z" fill="white"/>
<path d="M13.4138 9.2793H5.34961C4.88324 9.2793 4.50586 9.65668 4.50586 10.123C4.50586 10.5894 4.88324 10.9668 5.34961 10.9668H13.4138C13.8802 10.9668 14.2576 10.5894 14.2576 10.123C14.2576 9.65668 13.8802 9.2793 13.4138 9.2793Z" fill="white"/>
<path d="M12.6143 13.498H5.34766C4.88129 13.498 4.50391 13.8754 4.50391 14.3418C4.50391 14.8082 4.88129 15.1855 5.34766 15.1855H12.6143C13.0807 15.1855 13.458 14.8082 13.458 14.3418C13.458 13.8754 13.0807 13.498 12.6143 13.498Z" fill="white"/>
<path d="M15.1385 15.1894C14.1333 15.5392 13.4043 16.4928 13.4043 17.6241C13.4043 17.7542 13.4239 17.879 13.4424 18.0041C13.6266 19.2485 14.6836 20.2089 15.9677 20.2089C16.4505 20.2089 16.8436 20.6118 16.8436 21.107C16.8436 21.6014 16.4505 22.0043 15.9677 22.0043C15.4848 22.0043 15.0918 21.6014 15.0918 21.107C15.0918 20.6406 14.7144 20.2632 14.248 20.2632C13.7817 20.2632 13.4043 20.6406 13.4043 21.107C13.4043 22.2381 14.1332 23.1912 15.1384 23.5409C15.1764 23.9719 15.5267 24.3131 15.9677 24.3131C16.4087 24.3131 16.759 23.9719 16.797 23.5409C17.8022 23.1912 18.5311 22.2381 18.5311 21.107C18.5311 19.6815 17.3808 18.5214 15.9677 18.5214C15.4848 18.5214 15.0918 18.1184 15.0918 17.6241C15.0918 17.1288 15.4848 16.7259 15.9677 16.7259C16.4505 16.7259 16.8436 17.1288 16.8436 17.6241C16.8436 18.0904 17.2209 18.4678 17.6873 18.4678C18.1537 18.4678 18.5311 18.0904 18.5311 17.6241C18.5311 16.4928 17.8021 15.5392 16.7969 15.1894C16.7633 14.8136 16.4894 14.5213 16.1259 14.4498C16.0728 14.4394 16.0238 14.418 15.9677 14.418C15.527 14.418 15.177 14.7587 15.1385 15.1894Z" fill="white"/>
</svg>
