<svg width="40" height="40" viewBox="0 0 29 32" fill="none" xmlns="http://www.w3.org/2000/svg">
<path d="M17.3168 30C15.5335 27.3833 13.6668 23.9333 13.6668 20.8333C13.6668 17.7833 15.2668 15 17.6668 13.3333H17.0002V10H20.3335V12.05C21.1668 11.8167 22.0002 11.6667 22.8335 11.6667C23.1168 11.6667 23.4002 11.6667 23.6668 11.7167V0H0.333496V30H10.3335V24.1667H13.6668V30H17.3168ZM17.0002 3.33333H20.3335V6.66667H17.0002V3.33333ZM7.00016 26.6667H3.66683V23.3333H7.00016V26.6667ZM7.00016 20H3.66683V16.6667H7.00016V20ZM7.00016 13.3333H3.66683V10H7.00016V13.3333ZM7.00016 6.66667H3.66683V3.33333H7.00016V6.66667ZM10.3335 3.33333H13.6668V6.66667H10.3335V3.33333ZM10.3335 10H13.6668V13.3333H10.3335V10ZM10.3335 20V16.6667H13.6668V20H10.3335ZM22.8335 15C19.6668 15 17.0002 17.6833 17.0002 20.8333C17.0002 25.1833 22.8335 31.6667 22.8335 31.6667C22.8335 31.6667 28.6668 25.1833 28.6668 20.8333C28.6668 17.6833 26.0002 15 22.8335 15ZM22.8335 23.0167C21.6668 23.0167 20.8335 22.0167 20.8335 21.0167C20.8335 19.85 21.8335 19.0167 22.8335 19.0167C23.8335 19.0167 24.8335 20 24.8335 21.0167C25.0002 22.0167 24.0002 23.0167 22.8335 23.0167Z" fill="#00416B"/>
</svg>
