<svg width="17" height="22" viewBox="0 0 17 22" fill="none" xmlns="http://www.w3.org/2000/svg">
<path d="M16.3296 18.3391C16.6993 18.3391 17 18.0392 17 17.6678L16.9998 0.669363C16.9998 0.300702 16.6999 0 16.3294 0H14.3184V8.37528L12.649 6.23855L10.9788 8.37528L10.979 0H3.6427V18.338H14.1981C14.0483 18.7867 13.9635 19.3584 14.0705 20.0326L1.39668 20.0324C1.52615 19.5575 1.90686 19.1525 2.30252 18.8454V0.253556C1.48414 0.692041 -0.231774 1.8502 0.0261395 3.75417V20.2946C0.0261395 20.6726 0.317495 21.3746 1.01577 21.3746H16.3289C16.6986 21.3746 16.9993 21.0747 16.9993 20.7052C16.9993 20.3347 16.6994 20.034 16.3289 20.034H15.4361C15.2435 19.2101 15.4845 18.6282 15.6595 18.3395L16.3296 18.3391Z" fill="white"/>
</svg>
