<svg width="18" height="22" viewBox="0 0 18 22" fill="none" xmlns="http://www.w3.org/2000/svg">
<path d="M2.16629 0H15.8304C17.019 0 18 0.967634 18 2.15625V19.8281C18 21.0167 17.019 21.9844 15.8304 21.9844H2.16629C0.981027 21.9844 0 21.0167 0 19.8281V2.15625C2.61706e-08 0.967634 0.981027 0 2.16629 0ZM15.8304 1.04464H15.1741V9.12053C15.1741 9.53571 14.692 9.82366 14.3069 9.51562L12.6362 8.28013L10.8415 9.54576C10.4967 9.79018 10.0179 9.53906 10.0179 9.12053V8.31362H7.59375C7.30245 8.31362 7.06808 8.07924 7.06808 7.79129V6.17411C7.06808 5.88281 7.30245 5.64844 7.59375 5.64844H10.0179V5.48437H6.20759C5.91629 5.48437 5.68192 5.25 5.68192 4.9587V3.34152C5.68192 3.05357 5.91629 2.8192 6.20759 2.8192H10.0179V1.04464H4.04464V20.9397H15.8304C16.4464 20.9397 16.952 20.4408 16.952 19.8281V2.15625C16.952 1.54353 16.4464 1.04464 15.8304 1.04464ZM14.1261 1.04464H11.0625V8.10938C12.9308 6.79353 12.375 6.79018 14.1261 8.08259V1.04464ZM2.99665 1.04464C2.41406 1.04464 1.04799 0.910714 1.04799 2.15625V19.8281C1.04799 20.4408 1.55022 20.9397 2.16629 20.9397H2.99665V1.04464ZM10.0179 7.26562V6.69643H8.11607V7.26562H10.0179ZM10.0179 4.43638V3.86719H6.72991V4.43638H10.0179Z" fill="white" stroke="white" stroke-width="0.4"/>
</svg>
