<svg width="19" height="24" viewBox="0 0 19 24" fill="none" xmlns="http://www.w3.org/2000/svg">
<path d="M9.42926 0C6.92836 0 4.53043 0.993288 2.76116 2.76116C0.993178 4.53021 0 6.92814 0 9.42926C0 17.4955 8.57205 23.5903 8.94072 23.8473C9.23431 24.0509 9.62434 24.0509 9.91793 23.8473C10.2865 23.5901 18.8587 17.4955 18.8587 9.42926C18.8587 6.92836 17.8654 4.53043 16.0975 2.76116C14.3284 0.993178 11.9304 0 9.42926 0ZM9.42926 22.0731C7.65483 20.6844 1.71441 15.5583 1.71441 9.42926C1.71441 6.67331 3.18452 4.12638 5.5717 2.74854C7.95901 1.36953 10.8993 1.36953 13.2865 2.74854C15.6739 4.12649 17.1438 6.67358 17.1438 9.42926C17.1438 15.5583 11.2037 20.6843 9.42926 22.0731ZM9.42926 4.28603C8.2924 4.28603 7.20266 4.73712 6.399 5.54182C5.5943 6.34546 5.1432 7.43516 5.1432 8.57208C5.1432 9.70899 5.5943 10.7987 6.399 11.6023C7.20264 12.407 8.29234 12.8581 9.42926 12.8581C10.5662 12.8581 11.6559 12.407 12.4595 11.6023C13.2642 10.7987 13.7153 9.70899 13.7153 8.57208C13.7153 7.43516 13.2642 6.34549 12.4595 5.54182C11.6559 4.73712 10.5662 4.28603 9.42926 4.28603ZM9.42926 11.1437C8.38882 11.1437 7.45127 10.5168 7.05372 9.55569C6.65512 8.59562 6.87584 7.48874 7.61088 6.75365C8.34594 6.0186 9.45279 5.79786 10.4129 6.19648C11.3741 6.59401 12.0009 7.53158 12.0009 8.57203C12.0009 9.99178 10.849 11.1437 9.42926 11.1437Z" fill="white"/>
</svg>
