<svg width="23" height="22" viewBox="0 0 23 22" fill="none" xmlns="http://www.w3.org/2000/svg">
<path d="M23 12.6918C23 10.6339 21.4989 8.91497 19.5137 8.60023V8.01918C19.5137 3.63707 15.9547 0.078125 11.5726 0.078125C7.19053 0.078125 3.60737 3.63707 3.60737 8.01918V8.57602C1.57368 8.84234 0 10.5855 0 12.6918C0 14.9918 1.86421 16.856 4.16421 16.856H5.22947C6.10105 16.856 6.77895 16.1539 6.77895 15.3065V10.1013C6.77895 9.30234 6.17368 8.64865 5.39895 8.55181V8.01918C5.39895 4.6297 8.15895 1.8697 11.5484 1.8697C14.9379 1.8697 17.6979 4.6297 17.6979 8.01918V8.5276C16.8505 8.55181 16.1968 9.2297 16.1968 10.0771V15.2823C16.1968 15.936 16.6084 16.5171 17.2137 16.735C16.4632 17.9939 15.1558 18.8413 13.6063 18.9623C13.5095 18.5265 13.1221 18.1876 12.6379 18.1876H10.4589C9.92632 18.1876 9.46632 18.6234 9.46632 19.1802V20.2939C9.46632 20.8265 9.90211 21.2865 10.4589 21.2865H12.6379C13.1221 21.2865 13.5337 20.9476 13.6063 20.4634C15.9547 20.3423 17.94 18.8655 18.8358 16.8318C21.1358 16.8318 23 14.9676 23 12.6918ZM4.98737 15.0402H4.16421C2.85684 15.0402 1.81579 13.975 1.81579 12.6918C1.81579 11.4087 2.88105 10.3434 4.16421 10.3434H4.98737V15.0402ZM18.8358 15.0402H18.0126V10.3434H18.8358C20.1432 10.3434 21.1842 11.4087 21.1842 12.6918C21.1842 13.975 20.1432 15.0402 18.8358 15.0402Z" fill="white"/>
</svg>
