<svg width="24" height="28" viewBox="0 0 24 28" fill="none" xmlns="http://www.w3.org/2000/svg">
<g id="Group">
<g id="Group_2">
<path id="Vector" d="M19.8706 5.03482L19.119 25.3276C19.1061 25.6759 18.7993 25.9709 18.4496 25.9709H5.46407C5.11465 25.9709 4.80752 25.6748 4.79466 25.3276L4.04307 5.03482C4.02234 4.47491 3.55163 4.03783 2.99173 4.05857C2.43182 4.07931 1.99474 4.55001 2.01548 5.10992L2.76707 25.4027C2.82031 26.8404 4.02311 27.9999 5.46407 27.9999H18.4496C19.8898 27.9999 21.0932 26.8425 21.1466 25.4027L21.8981 5.10992C21.9189 4.55001 21.4818 4.07931 20.9219 4.05857C20.362 4.03783 19.8913 4.47491 19.8706 5.03482Z" fill="#E84C3B"/>
<path id="Vector_2" d="M11.1458 9.13044V22.9275C11.1458 23.3758 11.5091 23.7391 11.9573 23.7391C12.4056 23.7391 12.7689 23.3758 12.7689 22.9275V9.13044C12.7689 8.68221 12.4056 8.31885 11.9573 8.31885C11.5091 8.31885 11.1458 8.68221 11.1458 9.13044Z" fill="#E84C3B"/>
<path id="Vector_3" d="M6.68188 9.15431L7.08767 22.9514C7.10085 23.3994 7.47474 23.752 7.92278 23.7388C8.37081 23.7256 8.72334 23.3517 8.71016 22.9037L8.30436 9.10659C8.29118 8.65855 7.9173 8.30603 7.46926 8.31921C7.02122 8.33238 6.6687 8.70627 6.68188 9.15431Z" fill="#E84C3B"/>
<path id="Vector_4" d="M15.6098 9.10659L15.204 22.9037C15.1908 23.3517 15.5433 23.7256 15.9914 23.7388C16.4394 23.752 16.8133 23.3994 16.8265 22.9514L17.2323 9.15431C17.2454 8.70627 16.8929 8.33238 16.4449 8.31921C15.9968 8.30603 15.6229 8.65855 15.6098 9.10659Z" fill="#E84C3B"/>
<path id="Vector_5" d="M1.81161 5.4782H22.1015C22.6618 5.4782 23.116 5.024 23.116 4.46371C23.116 3.90342 22.6618 3.44922 22.1015 3.44922H1.81161C1.25132 3.44922 0.797119 3.90342 0.797119 4.46371C0.797119 5.024 1.25132 5.4782 1.81161 5.4782Z" fill="#E84C3B"/>
<path id="Vector_6" d="M8.87487 4.13378L9.29731 2.65525C9.38778 2.33857 9.79828 2.02899 10.1278 2.02899H13.7869C14.1167 2.02899 14.5269 2.33831 14.6175 2.65525L15.0399 4.13378L16.9908 3.57637L16.5684 2.09784C16.2289 0.909729 15.0225 0 13.7869 0H10.1278C8.89245 0 7.68575 0.910056 7.34639 2.09784L6.92395 3.57637L8.87487 4.13378Z" fill="#E84C3B"/>
</g>
</g>
</svg>
