<svg width="24" height="24" viewBox="0 0 24 24" fill="none" xmlns="http://www.w3.org/2000/svg">
<path d="M18.3809 5.32542L18.9294 4.03971H18.9295C18.9647 3.96652 18.9556 3.87971 18.9059 3.8155C18.5132 3.3486 18.0809 2.91633 17.6137 2.52386C17.5486 2.47185 17.4596 2.4618 17.3844 2.49768L16.0987 3.04585C15.9676 3.10181 15.8171 3.08872 15.6977 3.01123C14.7626 2.40318 13.7242 1.97159 12.6337 1.73792C12.4941 1.70796 12.3786 1.61057 12.3255 1.47819L11.807 0.18385C11.7786 0.1078 11.7116 0.0527302 11.6314 0.039818C11.0213 -0.0132727 10.4079 -0.0132727 9.79786 0.039818C9.71625 0.052553 9.64791 0.108337 9.61867 0.185645L9.10103 1.47815C9.04794 1.61053 8.93243 1.70792 8.79288 1.73788C7.7014 1.97123 6.662 2.40277 5.72605 3.01119C5.60641 3.08868 5.4561 3.10177 5.32498 3.04581L4.03927 2.49731C3.96572 2.46234 3.87873 2.47148 3.81416 2.52135C3.34745 2.91381 2.91554 3.34645 2.52377 3.81386C2.47157 3.87825 2.46117 3.96703 2.49722 4.04183L3.04571 5.32754C3.10168 5.45884 3.08876 5.60933 3.0111 5.72915C2.40268 6.66473 1.97114 7.70418 1.73778 8.79543C1.70783 8.93498 1.61043 9.05049 1.47806 9.10358L0.183715 9.62214C0.107665 9.65066 0.0525959 9.71774 0.0396837 9.79792C-0.0132279 10.4079 -0.0132279 11.0214 0.0396837 11.6314C0.0524187 11.713 0.108024 11.7814 0.185511 11.8104L1.47802 12.3261C1.61039 12.3792 1.70779 12.4947 1.73774 12.6343C1.97092 13.7257 2.4025 14.7653 3.01105 15.7011C3.08872 15.8207 3.10164 15.9714 3.04567 16.1025L2.49718 17.3882C2.46166 17.4618 2.47099 17.5489 2.52121 17.6133C2.91295 18.0799 3.34471 18.5116 3.81106 18.9037C3.87581 18.9563 3.96514 18.9663 4.03993 18.9299L5.32564 18.3821C5.45694 18.3263 5.60725 18.3392 5.72689 18.4169C6.66266 19.0251 7.7023 19.4565 8.79373 19.6897C8.93328 19.7197 9.04879 19.8171 9.10188 19.9494L9.62043 21.2438C9.64842 21.3202 9.71568 21.3753 9.79603 21.3878C10.2437 21.4258 10.6932 21.4368 11.1422 21.4203V18.8445C10.9978 18.8523 10.8555 18.8566 10.7137 18.8566C8.70401 18.8585 6.7647 18.1172 5.26868 16.7754C3.77275 15.4335 2.82569 13.5858 2.6101 11.588C2.39432 9.58998 2.92508 7.58266 4.1001 5.95243C5.27534 4.32215 7.01178 3.18388 8.97571 2.75698C10.9394 2.3299 12.9916 2.64398 14.7375 3.63893C16.4837 4.63407 17.8 6.23942 18.4336 8.14663C18.7125 8.15183 19.0915 8.16242 19.5281 8.18484C19.28 7.31473 18.9044 6.48623 18.4138 5.72605C18.3371 5.60623 18.3247 5.4561 18.3808 5.32534L18.3809 5.32542Z" fill="white"/>
<path d="M23.9998 9.93255C23.7428 9.60646 21.7217 9 18.0001 9C14.2786 9 12.2571 9.60644 12 9.93255V13.8137C12.243 14.1385 14.2607 14.7502 18.0001 14.7502C21.7394 14.7502 23.7574 14.1386 24.0003 13.8137L23.9998 9.93255ZM22.807 11.2096H22.8072C21.2239 11.5194 19.613 11.6645 18 11.643C16.3869 11.6645 14.7758 11.5194 13.1928 11.2096C12.9616 11.1583 12.8158 10.9293 12.8673 10.6981C12.9186 10.467 13.1476 10.3212 13.3787 10.3727C14.9011 10.6665 16.4496 10.805 17.9999 10.7858C19.5503 10.8046 21.0986 10.6658 22.6211 10.3714C22.8521 10.32 23.0812 10.4658 23.1327 10.6968C23.184 10.928 23.0381 11.157 22.8071 11.2084L22.807 11.2096Z" fill="white"/>
<path d="M23.9993 14.7954C22.2851 15.5771 18.5373 15.6067 17.9992 15.6067C17.4609 15.6067 13.7135 15.5771 11.999 14.7954V18.6585C12.2421 18.9829 14.2598 19.595 17.9992 19.595C21.7387 19.595 23.7564 18.9851 23.9993 18.6585V14.7954Z" fill="white"/>
<path d="M23.9993 23.0665V19.6406C22.2851 20.422 18.5373 20.4519 17.9992 20.4519C17.4609 20.4519 13.7135 20.422 11.999 19.6406V23.0665C12.2564 23.3926 14.2775 23.9991 17.9992 23.9991C21.7208 23.9991 23.7422 23.3927 23.9988 23.0665H23.9993Z" fill="white"/>
</svg>
