<svg width="14" height="18" viewBox="0 0 14 18" fill="none" xmlns="http://www.w3.org/2000/svg">
<g id="Group">
<path id="Vector" fill-rule="evenodd" clip-rule="evenodd" d="M7.62444 0.21723L12.4996 4.22255C13.3578 4.91994 12.0704 5.96627 11.2119 5.26888L8.34217 2.93683C8.10235 2.74194 7.91059 2.8062 7.91059 3.07771V11.1572C7.91059 11.5659 7.50301 11.897 7.00013 11.897C6.49726 11.897 6.08968 11.5659 6.08968 11.1572V3.07771C6.08968 2.80659 5.89643 2.74313 5.65805 2.93683L2.78807 5.26888C1.92982 5.96627 0.642133 4.91994 1.50039 4.22255L6.34387 0.219453C6.69652 -0.0720044 7.27051 -0.0735504 7.62444 0.21723ZM3.34783 6.65712C3.85209 6.65712 4.26087 6.98832 4.26087 7.39687C4.26087 7.80543 3.85209 8.13663 3.34783 8.13663H2.43428C2.09804 8.13663 1.82609 8.35713 1.82609 8.63111V16.026C1.82609 16.2996 2.09853 16.5205 2.4364 16.5205H11.5636C11.9013 16.5205 12.1739 16.2998 12.1739 16.026V8.63111C12.1739 8.35792 11.9011 8.13663 11.5657 8.13663H10.6522C10.1479 8.13663 9.73913 7.80543 9.73913 7.39687C9.73913 6.98832 10.1479 6.65712 10.6522 6.65712H11.5657C12.9101 6.65712 14 7.54121 14 8.63111V16.026C14 17.1171 12.9095 18 11.5636 18H2.4364C1.08975 18 0 17.1165 0 16.026V8.63111C0 7.54027 1.08922 6.65712 2.43428 6.65712H3.34783Z" fill="#004877"/>
</g>
</svg>
