<svg width="20" height="24" viewBox="0 0 20 24" fill="none" xmlns="http://www.w3.org/2000/svg">
<path d="M19.025 1.57698C19.0488 1.15332 18.8822 0.776723 18.6205 0.494278C18.3351 0.188297 17.9068 0.0235371 17.4786 0.0235371L6.7969 0C6.65416 0 6.46384 0.0235371 6.3211 0.117685L0.68286 5.71951C0.65907 5.74305 0.65907 5.74305 0.63528 5.76658C0.51633 5.95488 0.46875 6.11964 0.46875 6.30793V21.5129C0.46875 22.3602 1.18245 23.0663 2.03889 23.0663H17.4786C18.3351 23.0663 19.0488 22.3602 19.0488 21.5129L19.025 1.57698ZM17.1456 21.1834H2.37195V7.29649H6.15457C7.10617 7.29649 7.84366 6.56684 7.84366 5.62536L7.81987 1.9065H17.1456V21.1834Z" fill="white"/>
<path d="M4.39453 12.0039C4.39453 12.5217 4.82275 12.9218 5.32234 12.9218H14.1484C14.6718 12.9218 15.0763 12.4982 15.0763 12.0039C15.0763 11.4861 14.648 11.0859 14.1484 11.0859H5.34613C4.82275 11.0859 4.39453 11.5096 4.39453 12.0039Z" fill="white"/>
<path d="M14.1473 15.2754H7.50984C6.98646 15.2754 6.58203 15.6991 6.58203 16.1933C6.58203 16.7112 7.01025 17.1113 7.50984 17.1113H14.1473C14.6706 17.1113 15.0751 16.6876 15.0751 16.1933C15.0989 15.6755 14.6706 15.2754 14.1473 15.2754Z" fill="white"/>
</svg>
