<svg width="17" height="25" viewBox="0 0 17 25" fill="none" xmlns="http://www.w3.org/2000/svg">
<path d="M13.2605 0C15.0878 0 15.0878 2.73474 13.2605 2.73474H3.27885V21.8021H13.2605C15.0878 21.8021 15.0878 24.5365 13.2605 24.5365H1.88925C1.12247 24.5365 0.5 23.9243 0.5 23.1697V1.3672C0.5 0.61225 1.12247 0 1.88925 0H13.2605ZM5.26468 10.9009C3.43766 10.9009 3.43766 13.6353 5.26468 13.6353H11.9831L10.4088 15.1843C9.11688 16.456 11.0816 18.3892 12.3735 17.1179L16.3114 13.2429C16.842 12.7203 16.8865 11.8597 16.3114 11.2933L12.3735 7.41869C11.0816 6.1473 9.11688 8.08054 10.4088 9.35227L11.9831 10.9009H5.26468Z" fill="white"/>
</svg>
