<svg width="25" height="27" viewBox="0 0 25 27" fill="none" xmlns="http://www.w3.org/2000/svg">
<path id="Vector" d="M6.75 6.66667L4.08333 0L9.41667 2.66667L12.0833 0L14.75 2.66667L20.0833 0L17.4167 6.66667H6.75ZM17.4167 26.6667C9.41667 26.6667 6.75 26.6667 6.75 26.6667C-1.25 26.6667 0.0833333 21.3333 0.0833333 21.3333C0.0833333 21.3333 1.41667 12 6.75 9.33333H17.4167C22.75 12 24.0833 21.3333 24.0833 21.3333C24.0833 21.3333 25.4167 26.6667 17.4167 26.6667ZM6.08333 14C6.08333 14.5304 6.29405 15.0391 6.66912 15.4142C7.04419 15.7893 7.5529 16 8.08333 16C8.61377 16 9.12247 15.7893 9.49755 15.4142C9.87262 15.0391 10.0833 14.5304 10.0833 14C10.0833 13.4696 9.87262 12.9609 9.49755 12.5858C9.12247 12.2107 8.61377 12 8.08333 12C7.5529 12 7.04419 12.2107 6.66912 12.5858C6.29405 12.9609 6.08333 13.4696 6.08333 14ZM18.0833 22C18.0833 21.4696 17.8726 20.9609 17.4975 20.5858C17.1225 20.2107 16.6138 20 16.0833 20C15.5529 20 15.0442 20.2107 14.6691 20.5858C14.294 20.9609 14.0833 21.4696 14.0833 22C14.0833 22.5304 14.294 23.0391 14.6691 23.4142C15.0442 23.7893 15.5529 24 16.0833 24C16.6138 24 17.1225 23.7893 17.4975 23.4142C17.8726 23.0391 18.0833 22.5304 18.0833 22ZM18.0833 13.8L16.2833 12L6.08333 22.2L7.91 24L18.0833 13.8Z" fill="#2B9FFF"/>
</svg>
