<svg width="29" height="26" viewBox="0 0 31 36" fill="none" xmlns="http://www.w3.org/2000/svg">
<path d="M3.99984 0.333496C2.14984 0.333496 0.666504 1.81683 0.666504 3.66683V30.3335C0.666504 31.2176 1.01769 32.0654 1.64281 32.6905C2.26794 33.3156 3.11578 33.6668 3.99984 33.6668H10.6665V30.4835L14.1498 27.0002H3.99984V23.6668H17.4832L20.8165 20.3335H3.99984V17.0002H24.1498L27.3332 13.8168V10.3335L17.3332 0.333496H3.99984ZM15.6665 2.8335L24.8332 12.0002H15.6665V2.8335ZM27.5832 18.6668C27.3332 18.6668 27.0998 18.7502 26.9165 18.9335L25.2165 20.6335L28.6998 24.1002L30.3998 22.4168C30.7498 22.0502 30.7498 21.4502 30.3998 21.1002L28.2332 18.9335C28.0498 18.7502 27.8165 18.6668 27.5832 18.6668ZM24.2332 21.6168L13.9998 31.8668V35.3335H17.4665L27.7165 25.0835L24.2332 21.6168Z" fill="#00416B"/>
</svg>
