<svg width="30" height="34" viewBox="0 0 30 34" fill="none" xmlns="http://www.w3.org/2000/svg">
<path d="M26.6667 4.00002H19.7C19 2.06669 17.1667 0.666687 15 0.666687C12.8333 0.666687 11 2.06669 10.3 4.00002H3.33333C1.5 4.00002 0 5.50002 0 7.33335V30.6667C0 32.5 1.5 34 3.33333 34H26.6667C28.5 34 30 32.5 30 30.6667V7.33335C30 5.50002 28.5 4.00002 26.6667 4.00002ZM15 4.00002C15.9167 4.00002 16.6667 4.75002 16.6667 5.66669C16.6667 6.58335 15.9167 7.33335 15 7.33335C14.0833 7.33335 13.3333 6.58335 13.3333 5.66669C13.3333 4.75002 14.0833 4.00002 15 4.00002ZM18.3333 27.3334H6.66667V24H18.3333V27.3334ZM23.3333 20.6667H6.66667V17.3334H23.3333V20.6667ZM23.3333 14H6.66667V10.6667H23.3333V14Z" fill="#00416B"/>
</svg>
