<svg width="17" height="21" viewBox="0 0 17 21" fill="none" xmlns="http://www.w3.org/2000/svg">
<path d="M12.1061 1.43032C9.25058 1.43032 7.25024 2.09494e-07 4.26288 2.09494e-07C3.04712 -0.000257366 1.66703 0.23697 0 0.904091V22.2829C0 22.4245 0.115909 22.5405 0.257576 22.5405H1.28788C1.42955 22.5405 1.54545 22.4245 1.54545 22.2829V12.0172C2.55026 11.7437 3.44585 11.6321 4.26442 11.6321C7.24973 11.6321 9.24877 13.0601 12.1009 13.0601C13.4697 13.0601 15.035 12.7312 17 11.7576V0.131364C15.0375 1.10217 13.4738 1.43032 12.1061 1.43032ZM15.4545 10.7667C14.2419 11.2749 13.1593 11.5147 12.1009 11.5147C10.9109 11.5147 9.83965 11.2035 8.7058 10.8743C7.43467 10.5052 5.99405 10.0869 4.26442 10.0869C3.37502 10.0869 2.47427 10.1964 1.5452 10.4189V1.99183C2.50389 1.69202 3.4 1.54545 4.26262 1.54545C5.55308 1.54545 6.6658 1.86897 7.8437 2.21129C9.13673 2.58709 10.4738 2.97577 12.1055 2.97577C13.1928 2.97577 14.3006 2.79573 15.454 2.42894V10.7667H15.4545Z" fill="white" stroke="white" stroke-width="0.4"/>
</svg>
