<svg width="15" height="24" viewBox="2 0 15 24" fill="none" xmlns="http://www.w3.org/2000/svg">
<path fill-rule="evenodd" clip-rule="evenodd" d="M2.56882 0.000513811C1.24577 0.000513811 0.158203 1.0894 0.158203 2.41245V20.5892C0.158203 21.9122 1.24577 22.9958 2.56882 22.9958H17.1065C18.4296 22.9958 19.5184 21.9122 19.5184 20.5892V5.9062C19.5174 5.89516 19.516 5.88415 19.5144 5.87318C19.5123 5.83268 19.5065 5.79245 19.4972 5.75298C19.4949 5.74058 19.4923 5.72824 19.4893 5.71599C19.4751 5.6682 19.4556 5.62213 19.4312 5.57862C19.4269 5.57103 19.4225 5.56353 19.4179 5.55612C19.3901 5.5096 19.3569 5.46659 19.3189 5.428L14.0961 0.199926C14.0607 0.165853 14.0217 0.135733 13.9798 0.110099C13.9644 0.100212 13.9485 0.0909594 13.9323 0.0823632C13.8943 0.0623336 13.8545 0.0459677 13.8134 0.0334872C13.8103 0.0321011 13.8073 0.0307377 13.8042 0.0293972C13.7859 0.024618 13.7674 0.0206096 13.7487 0.0173827C13.7199 0.01149 13.6908 0.00747669 13.6615 0.00536819C13.6471 0.00310641 13.6325 0.00131607 13.6179 0L2.56882 0.000513811ZM2.56882 1.3531H12.9391V4.16924C12.9391 5.49229 14.0267 6.58117 15.3497 6.58117H18.1659V20.5892C18.1659 21.1863 17.7036 21.6419 17.1065 21.6419H2.56882C1.97171 21.6419 1.51079 21.1863 1.51079 20.5892V2.41245C1.51079 1.81534 1.97171 1.3531 2.56882 1.3531ZM14.2917 2.31207L15.7513 3.76901L17.2082 5.22727H15.3497C14.7526 5.22727 14.2917 4.76635 14.2917 4.16924V2.31207ZM13.2337 9.31145C13.055 9.31182 12.8837 9.38287 12.7573 9.50908C12.6308 9.6353 12.5594 9.80643 12.5587 9.9851V17.9435C12.5584 18.0324 12.5756 18.1205 12.6093 18.2028C12.6431 18.285 12.6927 18.3598 12.7554 18.4229C12.8181 18.4859 12.8926 18.536 12.9747 18.5703C13.0567 18.6045 13.1447 18.6222 13.2337 18.6224H15.7843C15.8736 18.6227 15.962 18.6054 16.0445 18.5714C16.127 18.5374 16.202 18.4874 16.2651 18.4243C16.3282 18.3612 16.3782 18.2862 16.4122 18.2037C16.4462 18.1211 16.4636 18.0327 16.4632 17.9435V9.9851C16.4625 9.80574 16.3906 9.63402 16.2633 9.50768C16.1359 9.38135 15.9637 9.31077 15.7843 9.31145H13.2337ZM13.9126 10.664H15.1106V17.2698H13.9126V10.664ZM8.52074 12.2663C8.43182 12.2665 8.34381 12.2842 8.26174 12.3184C8.17967 12.3526 8.10516 12.4027 8.04247 12.4658C7.97978 12.5288 7.93013 12.6036 7.89638 12.6859C7.86263 12.7682 7.84543 12.8563 7.84577 12.9452V17.9435C7.84543 18.0324 7.86263 18.1205 7.89638 18.2028C7.93014 18.285 7.97978 18.3598 8.04247 18.4229C8.10516 18.4859 8.17967 18.536 8.26174 18.5703C8.34381 18.6045 8.43182 18.6222 8.52074 18.6224H11.0714C11.1606 18.6227 11.2491 18.6054 11.3316 18.5714C11.4141 18.5374 11.4891 18.4874 11.5522 18.4243C11.6153 18.3612 11.6653 18.2862 11.6993 18.2037C11.7333 18.1211 11.7506 18.0327 11.7503 17.9435V12.9452C11.7506 12.856 11.7333 12.7675 11.6993 12.685C11.6653 12.6025 11.6153 12.5275 11.5522 12.4644C11.4891 12.4013 11.4141 12.3513 11.3316 12.3173C11.2491 12.2833 11.1606 12.2659 11.0714 12.2663H8.52074ZM9.19968 13.6202H10.3977V17.2698H9.19968V13.6202ZM3.80781 13.854C3.62914 13.8547 3.45801 13.9261 3.33179 14.0525C3.20558 14.179 3.13453 14.3503 3.13416 14.529V17.9435C3.13348 18.1228 3.20406 18.2951 3.33039 18.4224C3.45673 18.5497 3.62845 18.6217 3.80781 18.6224H6.35845C6.4477 18.6227 6.53614 18.6054 6.61867 18.5714C6.70119 18.5374 6.77617 18.4874 6.83928 18.4243C6.9024 18.3612 6.95239 18.2862 6.98639 18.2037C7.02039 18.1211 7.03772 18.0327 7.03738 17.9435V14.529C7.0372 14.44 7.01948 14.352 6.98525 14.27C6.95102 14.1879 6.90094 14.1134 6.83788 14.0507C6.77482 13.988 6.70002 13.9383 6.61775 13.9046C6.53548 13.8708 6.44737 13.8536 6.35845 13.854L3.80781 13.854ZM4.48675 15.2079H5.68479V17.2698H4.48675V15.2079Z" fill="white"/>
</svg>
