<svg width="29" height="29" viewBox="0 0 29 29" fill="none" xmlns="http://www.w3.org/2000/svg">
<path fill-rule="evenodd" clip-rule="evenodd" d="M7.0618 3.00051C5.71742 3.00051 4.6123 4.0894 4.6123 5.41245V23.5892C4.6123 24.9122 5.71742 25.9958 7.0618 25.9958H21.834C23.1784 25.9958 24.2848 24.9122 24.2848 23.5892V8.9062C24.2837 8.89516 24.2823 8.88415 24.2807 8.87318C24.2785 8.83268 24.2727 8.79245 24.2633 8.75298C24.2609 8.74058 24.2582 8.72824 24.2552 8.71599C24.2407 8.6682 24.2209 8.62213 24.1962 8.57862C24.1918 8.57103 24.1873 8.56353 24.1826 8.55612C24.1544 8.5096 24.1206 8.46659 24.082 8.428L18.775 3.19993C18.739 3.16585 18.6994 3.13573 18.6569 3.1101C18.6411 3.10021 18.625 3.09096 18.6085 3.08236C18.5699 3.06233 18.5295 3.04597 18.4877 3.03349C18.4846 3.0321 18.4815 3.03074 18.4784 3.0294C18.4598 3.02462 18.441 3.02061 18.422 3.01738C18.3928 3.01149 18.3632 3.00748 18.3334 3.00537C18.3187 3.00311 18.3039 3.00132 18.2891 3L7.0618 3.00051ZM7.0618 4.3531H17.5994V7.16924C17.5994 8.49229 18.7045 9.58117 20.0489 9.58117H22.9104V23.5892C22.9104 24.1863 22.4407 24.6419 21.834 24.6419H7.0618C6.45506 24.6419 5.98671 24.1863 5.98671 23.5892V5.41245C5.98671 4.81534 6.45507 4.3531 7.0618 4.3531ZM18.9738 5.31207L20.4569 6.76901L21.9373 8.22727H20.0489C19.4421 8.22727 18.9738 7.76635 18.9738 7.16924V5.31207ZM17.8987 12.3115C17.7171 12.3118 17.5431 12.3829 17.4146 12.5091C17.2861 12.6353 17.2135 12.8064 17.2128 12.9851V20.9435C17.2125 21.0324 17.2299 21.1205 17.2642 21.2028C17.2985 21.285 17.349 21.3598 17.4127 21.4229C17.4764 21.4859 17.5521 21.536 17.6355 21.5703C17.7189 21.6045 17.8083 21.6222 17.8987 21.6224H20.4904C20.5811 21.6227 20.671 21.6054 20.7549 21.5714C20.8387 21.5374 20.9149 21.4874 20.979 21.4243C21.0432 21.3612 21.094 21.2862 21.1285 21.2037C21.1631 21.1211 21.1807 21.0327 21.1803 20.9435V12.9851C21.1796 12.8057 21.1065 12.634 20.9771 12.5077C20.8477 12.3814 20.6727 12.3108 20.4904 12.3115H17.8987ZM18.5885 13.664H19.8059V20.2698H18.5885V13.664ZM13.1097 15.2663C13.0194 15.2665 12.9299 15.2842 12.8465 15.3184C12.7632 15.3526 12.6874 15.4027 12.6237 15.4658C12.56 15.5288 12.5096 15.6036 12.4753 15.6859C12.441 15.7682 12.4235 15.8563 12.4239 15.9452V20.9435C12.4235 21.0324 12.441 21.1205 12.4753 21.2028C12.5096 21.285 12.56 21.3598 12.6237 21.4229C12.6874 21.4859 12.7632 21.536 12.8465 21.5703C12.9299 21.6045 13.0194 21.6222 13.1097 21.6224H15.7015C15.7922 21.6227 15.8821 21.6054 15.9659 21.5714C16.0498 21.5374 16.126 21.4874 16.1901 21.4243C16.2542 21.3612 16.305 21.2862 16.3396 21.2037C16.3741 21.1211 16.3917 21.0327 16.3914 20.9435V15.9452C16.3917 15.856 16.3741 15.7675 16.3396 15.685C16.305 15.6025 16.2542 15.5275 16.1901 15.4644C16.126 15.4013 16.0498 15.3513 15.9659 15.3173C15.8821 15.2833 15.7922 15.2659 15.7015 15.2663H13.1097ZM13.7996 16.6202H15.017V20.2698H13.7996V16.6202ZM8.32078 16.854C8.13923 16.8547 7.96533 16.9261 7.83708 17.0525C7.70883 17.179 7.63663 17.3503 7.63626 17.529V20.9435C7.63557 21.1228 7.70729 21.2951 7.83566 21.4224C7.96403 21.5497 8.13853 21.6217 8.32078 21.6224H10.9126C11.0032 21.6227 11.0931 21.6054 11.177 21.5714C11.2608 21.5374 11.337 21.4874 11.4011 21.4243C11.4653 21.3612 11.5161 21.2862 11.5506 21.2037C11.5852 21.1211 11.6028 21.0327 11.6024 20.9435V17.529C11.6023 17.44 11.5843 17.352 11.5495 17.27C11.5147 17.1879 11.4638 17.1134 11.3997 17.0507C11.3356 16.988 11.2596 16.9383 11.176 16.9046C11.0924 16.8708 11.0029 16.8536 10.9126 16.854L8.32078 16.854ZM9.01067 18.2079H10.228V20.2698H9.01067V18.2079Z" fill="white"/>
</svg>
