<svg width="23" height="22" viewBox="0 0 23 22" fill="none" xmlns="http://www.w3.org/2000/svg">
<path d="M20.3804 12.0384V9.56748C20.9383 9.22495 21.4453 8.80795 21.8869 8.3284C21.989 8.21355 22.0519 8.06996 22.0664 7.91799C22.081 7.76602 22.0466 7.61339 21.9681 7.48175L19.5533 3.33209C19.4779 3.19681 19.3606 3.08867 19.2186 3.02334C19.0765 2.95801 18.917 2.93888 18.7632 2.96872C18.1199 3.10321 17.4987 3.32453 16.917 3.62642L14.7386 2.38733C14.7185 1.74141 14.6054 1.10156 14.4026 0.486914C14.3522 0.345099 14.2584 0.222133 14.1341 0.134936C14.0098 0.0477397 13.8611 0.000598773 13.7084 2.99886e-07H8.84199C8.68673 -0.000138474 8.53536 0.04789 8.40942 0.137259C8.28348 0.226628 8.18937 0.352791 8.14046 0.497815C7.93522 1.11211 7.81961 1.75196 7.79707 2.39823L5.61862 3.63368C5.03823 3.32736 4.41667 3.10348 3.77248 2.96872C3.62062 2.93725 3.46255 2.95367 3.32071 3.01564C3.17887 3.0776 3.06047 3.18197 2.98233 3.31392L0.552802 7.45632C0.475258 7.58869 0.442083 7.74175 0.457991 7.89374C0.473899 8.04573 0.538082 8.18892 0.641416 8.30296C1.08069 8.78304 1.58513 9.20122 2.14049 9.54568V12.0166C1.58256 12.3591 1.07559 12.7761 0.634032 13.2557C0.531857 13.3705 0.469023 13.5141 0.454442 13.6661C0.439862 13.8181 0.474276 13.9707 0.552802 14.1023L2.96756 18.252C3.043 18.3873 3.16024 18.4954 3.3023 18.5607C3.44436 18.6261 3.60386 18.6452 3.75771 18.6154C4.40094 18.4809 5.0222 18.2595 5.60385 17.9577L7.7823 19.1967C7.8024 19.8427 7.91553 20.4825 8.1183 21.0972C8.16638 21.2423 8.25966 21.3688 8.38492 21.4588C8.51018 21.5488 8.66105 21.5977 8.81615 21.5986H13.6789C13.8342 21.5987 13.9855 21.5507 14.1115 21.4613C14.2374 21.372 14.3315 21.2458 14.3804 21.1008C14.5857 20.4865 14.7013 19.8466 14.7238 19.2004L16.9023 17.9649C17.4827 18.2712 18.1042 18.4951 18.7484 18.6299C18.9003 18.6614 19.0583 18.6449 19.2002 18.583C19.342 18.521 19.4604 18.4166 19.5386 18.2847L21.9681 14.1278C22.0456 13.9954 22.0788 13.8423 22.0629 13.6903C22.047 13.5383 21.9828 13.3951 21.8795 13.2811C21.4402 12.801 20.9358 12.3828 20.3804 12.0384ZM18.5343 17.0674C18.1628 16.9768 17.8112 16.8204 17.4967 16.6059C17.3832 16.4844 17.2311 16.4045 17.0653 16.3794C16.8996 16.3544 16.7301 16.3855 16.5847 16.4678L13.5644 18.1684C13.4198 18.2508 13.3077 18.379 13.2467 18.5321C13.1857 18.6853 13.1792 18.8542 13.2284 19.0114C13.2564 19.3899 13.2151 19.7701 13.1066 20.1342H9.37737C9.2739 19.7692 9.23764 19.389 9.2703 19.0114C9.32076 18.8541 9.31535 18.6846 9.25496 18.5308C9.19457 18.3769 9.08279 18.2478 8.93799 18.1648L5.92139 16.4497C5.77643 16.3669 5.60718 16.3352 5.44145 16.3596C5.27571 16.384 5.12335 16.4632 5.0094 16.5841C4.69279 16.799 4.34039 16.9576 3.96817 17.0529L2.09987 13.8589C2.36982 13.5869 2.68756 13.3653 3.03771 13.2048C3.20429 13.1679 3.35273 13.0753 3.45775 12.9428C3.56277 12.8103 3.61788 12.6461 3.61371 12.4781V9.06967C3.61788 8.90168 3.56277 8.73745 3.45775 8.60495C3.35273 8.47245 3.20429 8.37985 3.03771 8.34293C2.69222 8.18448 2.37737 7.96808 2.10726 7.70341L3.98294 4.51667C4.35566 4.60685 4.70852 4.76324 5.02416 4.97814C5.13766 5.09965 5.28979 5.17953 5.45555 5.20462C5.62131 5.22972 5.7908 5.19854 5.93616 5.11622L8.95645 3.40476C9.10113 3.3224 9.21315 3.19418 9.27418 3.04105C9.33521 2.88792 9.34165 2.71895 9.29245 2.56175C9.26583 2.18693 9.30709 1.81045 9.4143 1.44984H13.1435C13.247 1.81483 13.2832 2.19509 13.2506 2.57265C13.2001 2.72994 13.2055 2.89944 13.2659 3.0533C13.3263 3.20716 13.4381 3.33623 13.5829 3.4193L16.5995 5.13439C16.7445 5.21715 16.9137 5.24892 17.0794 5.22449C17.2452 5.20006 17.3975 5.12087 17.5115 4.99995C17.8281 4.78507 18.1805 4.62642 18.5527 4.5312L20.421 7.72157C20.1511 7.9935 19.8333 8.21509 19.4832 8.37564C19.3197 8.41191 19.1737 8.50182 19.069 8.63058C18.9643 8.75934 18.9073 8.91931 18.9072 9.08421V12.5108C18.9073 12.6757 18.9643 12.8356 19.069 12.9644C19.1737 13.0932 19.3197 13.1831 19.4832 13.2193C19.8314 13.3829 20.1476 13.6055 20.4173 13.877L18.5343 17.0674ZM13.6641 6.70414C12.8425 6.23604 11.8982 6.01824 10.9507 6.07831C10.0033 6.13839 9.09521 6.47362 8.34137 7.04162C7.58753 7.60962 7.02178 8.38486 6.71568 9.26931C6.40957 10.1538 6.37686 11.1077 6.62168 12.0104C6.8665 12.9132 7.37786 13.7242 8.09108 14.3409C8.80429 14.9576 9.68733 15.3524 10.6285 15.4751C11.5697 15.5979 12.5267 15.4433 13.3786 15.0308C14.2305 14.6182 14.9389 13.9663 15.4143 13.1576C16.0515 12.0733 16.2252 10.7844 15.897 9.57423C15.5688 8.36404 14.7656 7.33167 13.6641 6.70414ZM14.1367 12.4308C13.8074 12.9905 13.3168 13.4415 12.727 13.7268C12.1372 14.0121 11.4746 14.1189 10.8232 14.0336C10.1717 13.9484 9.56056 13.675 9.06699 13.2479C8.57342 12.8209 8.2196 12.2594 8.05026 11.6345C7.88093 11.0096 7.90368 10.3493 8.11565 9.73706C8.32763 9.12486 8.71929 8.58826 9.24113 8.19511C9.76297 7.80196 10.3915 7.56992 11.0474 7.52832C11.7032 7.48672 12.3569 7.63743 12.9257 7.9614C13.3034 8.17656 13.6344 8.46286 13.8998 8.80393C14.1651 9.14501 14.3595 9.53418 14.472 9.94922C14.5844 10.3643 14.6127 10.797 14.5552 11.2228C14.4977 11.6486 14.3555 12.0591 14.1367 12.4308Z" fill="white"/>
</svg>
