<svg width="24" height="34" viewBox="0 0 24 34" fill="none" xmlns="http://www.w3.org/2000/svg">
<g id="Group">
<path id="Vector" d="M4.9436 22.73V28.1876H7.21132V22.73H4.9436Z" fill="#2B9FFF"/>
<path id="Vector_2" d="M13.1376 18.3911H10.8699V28.1876H13.1376V18.3911Z" fill="#2B9FFF"/>
<path id="Vector_3" d="M16.7962 22.73V28.1876H19.0639V22.73H16.7962Z" fill="#2B9FFF"/>
<path id="Vector_4" d="M20.5682 0H8.6929C8.66267 0 8.63243 0.015118 8.60219 0.0226771C8.57196 0.0302361 8.54928 0.0302362 8.5266 0.0377952C8.42834 0.0680314 8.34519 0.120945 8.27716 0.196535L0.128504 9.90235C0.0680318 9.97794 0.0377956 10.0611 0.0151184 10.1518C0.0151184 10.1669 0.00755951 10.1896 0.00755951 10.2047C0.00755951 10.2198 0 10.2349 0 10.2501V29.6617C0 31.6497 1.54205 33.2749 3.43937 33.2749H20.5606C22.4579 33.2749 24 31.6573 24 29.6617V3.61322C24.0075 1.61764 22.4655 0 20.5682 0ZM1.73858 9.70581L8.14865 2.07118V7.20377C8.14865 8.58708 7.09795 9.71337 5.81291 9.71337H1.73858V9.70581ZM8.31495 28.3464C8.31495 28.4598 8.29227 28.5656 8.25448 28.6715C8.24692 28.6866 8.24692 28.7017 8.23936 28.7168C8.2318 28.7319 8.22424 28.7471 8.22424 28.7622C8.20912 28.7924 8.19401 28.8151 8.17889 28.8378C8.14109 28.9058 8.09574 28.9587 8.04283 29.0116C7.87653 29.1779 7.6422 29.2837 7.37763 29.2837H4.78488C4.52787 29.2837 4.29354 29.1779 4.11968 29.0116C4.06677 28.9587 4.02141 28.8982 3.98362 28.8378C3.9685 28.8151 3.95338 28.7848 3.93826 28.7622C3.9307 28.7471 3.92315 28.7319 3.92315 28.7168C3.91559 28.7017 3.90803 28.6866 3.90803 28.6715C3.87023 28.5732 3.84756 28.4598 3.84756 28.3464V22.5638C3.84756 22.3067 3.95338 22.0724 4.11968 21.8986C4.28598 21.7247 4.52031 21.6264 4.78488 21.6264H7.37763C7.63464 21.6264 7.86897 21.7323 8.04283 21.8986C8.21668 22.0649 8.31495 22.2992 8.31495 22.5638V28.3464ZM14.2412 28.3464C14.2412 28.868 13.8179 29.2837 13.3039 29.2837H10.7112C10.1972 29.2837 9.77385 28.8604 9.77385 28.3464V18.2249C9.77385 17.7108 10.1972 17.2875 10.7112 17.2875H13.3039C13.8179 17.2875 14.2412 17.7108 14.2412 18.2249V28.3464ZM20.1675 28.3464C20.1675 28.4598 20.1449 28.5656 20.1071 28.6715C20.0995 28.6866 20.0995 28.7017 20.0919 28.7168C20.0844 28.7319 20.0768 28.7471 20.0768 28.7622C20.0617 28.7924 20.0466 28.8151 20.0315 28.8378C19.9937 28.9058 19.9483 28.9587 19.8954 29.0116C19.7291 29.1779 19.4948 29.2837 19.2302 29.2837H16.6375C16.3805 29.2837 16.1461 29.1779 15.9723 29.0116C15.9194 28.9587 15.874 28.8982 15.8362 28.8378C15.8211 28.8151 15.806 28.7848 15.7908 28.7622C15.7833 28.7471 15.7757 28.7319 15.7757 28.7168C15.7682 28.7017 15.7606 28.6866 15.7606 28.6715C15.7228 28.5732 15.7001 28.4598 15.7001 28.3464V22.5638C15.7001 22.3067 15.806 22.0724 15.9723 21.8986C16.1386 21.7247 16.3805 21.6264 16.6375 21.6264H19.2302C19.4872 21.6264 19.7216 21.7323 19.8954 21.8986C20.0693 22.0649 20.1675 22.2992 20.1675 22.5638V28.3464Z" fill="#2B9FFF"/>
</g>
</svg>
