<svg width="12" height="14" viewBox="0 0 12 14" fill="none" xmlns="http://www.w3.org/2000/svg">
<path id="Vector" d="M10.1026 14C9.57559 14 9.1276 13.8055 8.75867 13.4164C8.38974 13.0274 8.20527 12.555 8.20527 11.9992C8.20527 11.9214 8.21359 11.8262 8.23024 11.7137C8.24688 11.6012 8.27184 11.5 8.30513 11.41L3.26214 8.33C3.0957 8.52833 2.89043 8.68875 2.64632 8.81125C2.40222 8.93375 2.15257 8.995 1.89736 8.995C1.37032 8.995 0.92233 8.80104 0.553398 8.41312C0.184466 8.02521 0 7.55417 0 7C0 6.44583 0.184466 5.97479 0.553398 5.58687C0.92233 5.19896 1.37032 5.005 1.89736 5.005C2.15257 5.005 2.39667 5.0575 2.62968 5.1625C2.86269 5.2675 3.07351 5.41917 3.26214 5.6175L8.30513 2.5725C8.27184 2.49 8.24688 2.39719 8.23024 2.29406C8.21359 2.19094 8.20527 2.09125 8.20527 1.995C8.20527 1.44083 8.38974 0.969792 8.75867 0.581875C9.1276 0.193958 9.57559 0 10.1026 0C10.6297 0 11.0777 0.193958 11.4466 0.581875C11.8155 0.969792 12 1.44083 12 1.995C12 2.54917 11.8155 3.02021 11.4466 3.40812C11.0777 3.79604 10.6297 3.99 10.1026 3.99C9.84351 3.99 9.59564 3.94625 9.35905 3.85875C9.12246 3.77125 8.92094 3.62833 8.75451 3.43L3.71151 6.37C3.7337 6.46333 3.75312 6.57125 3.76976 6.69375C3.78641 6.81625 3.79473 6.91974 3.79473 7.00422C3.79473 7.08871 3.78641 7.17621 3.76976 7.26672C3.75312 7.35724 3.7337 7.44917 3.71151 7.5425L8.75451 10.5525C8.92094 10.3892 9.11512 10.2579 9.33703 10.1587C9.55895 10.0596 9.81415 10.01 10.1026 10.01C10.6297 10.01 11.0777 10.204 11.4466 10.5919C11.8155 10.9798 12 11.4508 12 12.005C12 12.5592 11.8155 13.0302 11.4466 13.4181C11.0777 13.806 10.6297 14 10.1026 14Z" fill="#2B9FFF"/>
</svg>
