<svg width="13" height="13" viewBox="0 0 13 13" fill="none" xmlns="http://www.w3.org/2000/svg">
<path d="M6.5 3.33333C4.754 3.33333 3.33333 4.754 3.33333 6.5C3.33333 8.246 4.754 9.66667 6.5 9.66667C8.246 9.66667 9.66667 8.246 9.66667 6.5C9.66667 4.754 8.246 3.33333 6.5 3.33333ZM6.5 8.66667C5.30533 8.66667 4.33333 7.69467 4.33333 6.5C4.33333 5.30533 5.30533 4.33333 6.5 4.33333C7.69467 4.33333 8.66667 5.30533 8.66667 6.5C8.66667 7.69467 7.69467 8.66667 6.5 8.66667ZM1.904 2.61133C1.70867 2.416 1.70867 2.09933 1.904 1.904C2.09933 1.70867 2.416 1.70867 2.61133 1.904L3.554 2.84667C3.74933 3.042 3.74933 3.35867 3.554 3.554C3.45667 3.65133 3.32867 3.70067 3.20067 3.70067C3.07267 3.70067 2.94467 3.652 2.84733 3.554L1.904 2.61133ZM9.446 3.554C9.25067 3.35867 9.25067 3.042 9.446 2.84667L10.3887 1.904C10.584 1.70867 10.9007 1.70867 11.096 1.904C11.2913 2.09933 11.2913 2.416 11.096 2.61133L10.1533 3.554C10.056 3.65133 9.928 3.70067 9.8 3.70067C9.672 3.70067 9.54333 3.652 9.446 3.554ZM1.83333 7H0.5C0.224 7 0 6.776 0 6.5C0 6.224 0.224 6 0.5 6H1.83333C2.10933 6 2.33333 6.224 2.33333 6.5C2.33333 6.776 2.10933 7 1.83333 7ZM6 1.83333V0.5C6 0.224 6.224 0 6.5 0C6.776 0 7 0.224 7 0.5V1.83333C7 2.10933 6.776 2.33333 6.5 2.33333C6.224 2.33333 6 2.10933 6 1.83333ZM13 6.5C13 6.776 12.776 7 12.5 7H11.1667C10.8907 7 10.6667 6.776 10.6667 6.5C10.6667 6.224 10.8907 6 11.1667 6H12.5C12.776 6 13 6.224 13 6.5ZM11.096 10.3887C11.2913 10.584 11.2913 10.9007 11.096 11.096C10.9987 11.1933 10.8707 11.2427 10.7427 11.2427C10.6147 11.2427 10.4867 11.194 10.3893 11.096L9.44667 10.1533C9.25133 9.958 9.25133 9.64133 9.44667 9.446C9.642 9.25067 9.95867 9.25067 10.154 9.446L11.0967 10.3887H11.096ZM3.554 9.446C3.74933 9.64133 3.74933 9.958 3.554 10.1533L2.61133 11.096C2.514 11.1933 2.386 11.2427 2.258 11.2427C2.13 11.2427 2.002 11.194 1.90467 11.096C1.70933 10.9007 1.70933 10.584 1.90467 10.3887L2.84733 9.446C3.04267 9.25067 3.35867 9.25067 3.554 9.446ZM7 11.1667V12.5C7 12.776 6.776 13 6.5 13C6.224 13 6 12.776 6 12.5V11.1667C6 10.8907 6.224 10.6667 6.5 10.6667C6.776 10.6667 7 10.8907 7 11.1667Z" fill="white"/>
</svg>
    