<svg width="15" height="25" viewBox="2 0 15 25" fill="none" xmlns="http://www.w3.org/2000/svg">
<path d="M12.5961 0H6.34613C6.13893 1.03591e-05 5.94022 0.0823237 5.79371 0.228834C5.6472 0.375345 5.56489 0.574053 5.56488 0.78125V1.5625H2.05078C1.53297 1.56311 1.03653 1.76908 0.670385 2.13523C0.304234 2.50138 0.0982641 2.99781 0.0976562 3.51562V23.0469C0.0982641 23.5647 0.304234 24.0611 0.670385 24.4273C1.03653 24.7934 1.53297 24.9994 2.05078 25H16.8945C17.4123 24.9994 17.9088 24.7934 18.2749 24.4273C18.6411 24.0611 18.847 23.5647 18.8477 23.0469V17.5217L21.9437 14.4257C22.3667 14.0048 22.6129 13.4382 22.6316 12.8417C22.6504 12.2453 22.4403 11.6643 22.0445 11.2177C21.6487 10.7711 21.0971 10.4928 20.5027 10.4398C19.9084 10.3868 19.3162 10.5631 18.8477 10.9326V3.51562C18.847 2.99781 18.6411 2.50138 18.2749 2.13523C17.9088 1.76908 17.4123 1.56311 16.8945 1.5625H13.3774V0.78125C13.3774 0.574053 13.2951 0.375345 13.1485 0.228834C13.002 0.0823237 12.8033 1.03591e-05 12.5961 0ZM7.12738 2.35889C7.12747 2.35374 7.12891 2.34892 7.12891 2.34375C7.12891 2.33858 7.12747 2.33376 7.12738 2.32861V1.5625H11.8149V3.125H7.12738V2.35889ZM19.7338 12.216C19.8063 12.1434 19.8925 12.0857 19.9873 12.0463C20.0821 12.007 20.1837 11.9867 20.2864 11.9866C20.389 11.9866 20.4907 12.0067 20.5855 12.046C20.6804 12.0852 20.7666 12.1428 20.8392 12.2154C20.9118 12.288 20.9694 12.3741 21.0087 12.469C21.0479 12.5638 21.0681 12.6655 21.0681 12.7681C21.0681 12.8708 21.0478 12.9724 21.0085 13.0672C20.9692 13.1621 20.9116 13.2482 20.8389 13.3208L14.0881 20.0716L12.8452 20.2097L12.9829 18.9669L19.7338 12.216ZM16.8945 3.125C16.9981 3.1251 17.0974 3.16629 17.1706 3.23953C17.2439 3.31276 17.2851 3.41206 17.2852 3.51562V12.455L11.6844 18.0559C11.559 18.1814 11.4799 18.3458 11.4601 18.5221L11.1843 21.0075C11.1723 21.1167 11.1834 21.2273 11.2169 21.3319C11.2504 21.4365 11.3056 21.5329 11.3789 21.6147C11.4522 21.6966 11.5419 21.7621 11.6422 21.8069C11.7425 21.8518 11.8511 21.875 11.961 21.875C11.9898 21.875 12.0186 21.8734 12.0472 21.8702L14.5329 21.5944C14.7092 21.5748 14.8736 21.4958 14.999 21.3703L17.2852 19.0842V23.0469C17.2851 23.1504 17.2439 23.2497 17.1706 23.323C17.0974 23.3962 16.9981 23.4374 16.8945 23.4375H2.05078C1.94721 23.4374 1.84792 23.3962 1.77468 23.323C1.70145 23.2497 1.66026 23.1504 1.66016 23.0469V3.51562C1.66026 3.41206 1.70145 3.31276 1.77468 3.23953C1.84792 3.16629 1.94721 3.1251 2.05078 3.125H5.56488V3.90625C5.56489 4.11345 5.6472 4.31216 5.79371 4.45867C5.94022 4.60518 6.13893 4.68749 6.34613 4.6875H12.5961C12.8033 4.68749 13.002 4.60518 13.1485 4.45867C13.2951 4.31216 13.3774 4.11345 13.3774 3.90625V3.125H16.8945Z" fill="white"/>
<path d="M8.68945 14.4531H4.00195C3.79476 14.4531 3.59605 14.5354 3.44954 14.682C3.30303 14.8285 3.22071 15.0272 3.2207 15.2344V19.9219C3.22071 20.1291 3.30303 20.3278 3.44954 20.4743C3.59605 20.6208 3.79476 20.7031 4.00195 20.7031H8.68945C8.89665 20.7031 9.09536 20.6208 9.24187 20.4743C9.38838 20.3278 9.47069 20.1291 9.4707 19.9219V15.2344C9.47069 15.0272 9.38838 14.8285 9.24187 14.682C9.09536 14.5354 8.89665 14.4531 8.68945 14.4531ZM7.9082 19.1406H4.7832V16.0156H7.9082V19.1406Z" fill="white"/>
<path d="M12.3119 7.65076L9.4707 10.4918V7.03125C9.47069 6.82405 9.38838 6.62534 9.24187 6.47883C9.09536 6.33232 8.89665 6.25001 8.68945 6.25H4.00195C3.79476 6.25001 3.59605 6.33232 3.44954 6.47883C3.30303 6.62534 3.22071 6.82405 3.2207 7.03125V11.7188C3.22071 11.9259 3.30303 12.1247 3.44954 12.2712C3.59605 12.4177 3.79476 12.5 4.00195 12.5H7.85327L8.21033 12.8571C8.28285 12.9296 8.36896 12.9872 8.46374 13.0265C8.55852 13.0657 8.6601 13.0859 8.7627 13.0859C8.86529 13.0859 8.96687 13.0657 9.06165 13.0265C9.15643 12.9872 9.24254 12.9296 9.31506 12.8571L13.4166 8.75549C13.5631 8.609 13.6454 8.4103 13.6454 8.20312C13.6454 7.99595 13.5631 7.79725 13.4166 7.65076C13.2701 7.50426 13.0714 7.42196 12.8643 7.42196C12.6571 7.42196 12.4584 7.50426 12.3119 7.65076ZM7.9082 10.3454L7.36194 9.7992C7.21544 9.6527 7.01675 9.5704 6.80957 9.5704C6.60239 9.5704 6.4037 9.6527 6.2572 9.7992C6.11071 9.94569 6.02841 10.1444 6.02841 10.3516C6.02841 10.5587 6.11071 10.7574 6.2572 10.9039L6.29077 10.9375H4.7832V7.8125H7.9082V10.3454Z" fill="white"/>
</svg>
