<svg width="23" height="21" viewBox="0 0 23 21" fill="none" xmlns="http://www.w3.org/2000/svg">
<path d="M20.6727 5.75399C20.0076 4.61662 19.1212 3.62106 18.0646 2.82493C17.008 2.0288 15.8024 1.4479 14.5174 1.11588C14.4441 1.1116 14.3724 1.09289 14.3065 1.06083C12.8814 0.687079 11.391 0.626831 9.93988 0.884324C8.48879 1.14182 7.11237 1.71079 5.90746 2.55122C5.80873 2.6199 5.72463 2.70715 5.65998 2.80798C5.59532 2.90882 5.55138 3.02126 5.53064 3.1389C5.50991 3.25654 5.51281 3.37707 5.53916 3.4936C5.56551 3.61013 5.6148 3.72039 5.68421 3.81807C5.75363 3.91576 5.84182 3.99896 5.94374 4.06293C6.04566 4.1269 6.15931 4.17038 6.27821 4.19089C6.39712 4.2114 6.51894 4.20853 6.63672 4.18246C6.75451 4.15639 6.86595 4.10763 6.96469 4.03895C7.95069 3.35147 9.07691 2.88599 10.2642 2.67522C11.4515 2.46445 12.671 2.5135 13.8371 2.81893C13.9104 2.82305 13.9822 2.84178 14.048 2.87398C15.6123 3.28057 17.0217 4.13198 18.102 5.32286C19.1823 6.51374 19.8859 7.99184 20.1259 9.57428C20.366 11.1567 20.1318 12.7741 19.4524 14.2262C18.773 15.6783 17.6782 16.9015 16.3034 17.7444C14.9286 18.5873 13.3343 19.013 11.7175 18.9687C10.1008 18.9245 8.53266 18.4122 7.20712 17.4954C5.88159 16.5785 4.85684 15.2973 4.25965 13.8102C3.66246 12.3231 3.51904 10.6955 3.84714 9.12857L4.08626 9.54412C4.20699 9.75338 4.40674 9.90668 4.64163 9.97034C4.87652 10.034 5.12734 10.0028 5.33901 9.88364C5.55068 9.76446 5.70588 9.56704 5.77052 9.33472C5.83516 9.10241 5.80396 8.85421 5.68377 8.64464L4.3297 6.29118C4.27001 6.1874 4.19024 6.09626 4.09495 6.02298C3.99966 5.94969 3.89071 5.8957 3.77433 5.86408C3.65794 5.83246 3.5364 5.82383 3.41665 5.83869C3.29689 5.85354 3.18127 5.89159 3.07637 5.95066L0.697621 7.29011C0.592612 7.34911 0.500385 7.42801 0.426212 7.52229C0.352039 7.61657 0.297374 7.72439 0.265343 7.83959C0.233311 7.95479 0.22454 8.0751 0.239531 8.19365C0.254522 8.31221 0.292983 8.42667 0.352712 8.53051C0.412442 8.63435 0.49227 8.72552 0.587634 8.79882C0.682998 8.87212 0.792029 8.92611 0.908493 8.95769C1.02496 8.98928 1.14657 8.99785 1.26638 8.98291C1.3862 8.96797 1.50186 8.92981 1.60676 8.87062L2.07185 8.60875C1.71361 10.1979 1.75297 11.8496 2.18653 13.4203C2.62008 14.991 3.43471 16.4332 4.55965 17.6216C5.68458 18.81 7.0858 19.7087 8.64156 20.2396C10.1973 20.7705 11.8606 20.9175 13.4868 20.6679C15.1131 20.4184 16.6532 19.7797 17.9732 18.8074C19.2933 17.8352 20.3535 16.5587 21.0616 15.0889C21.7698 13.6192 22.1045 12.0006 22.0367 10.3738C21.969 8.74694 21.5007 7.16109 20.6727 5.75399Z" fill="white"/>
<path d="M11.9854 5.08301C11.7417 5.08302 11.5079 5.17882 11.3356 5.34933C11.1632 5.51984 11.0664 5.75111 11.0664 5.99225V10.7751C11.0665 10.8349 11.0726 10.8945 11.0846 10.9531C11.09 10.9801 11.1001 11.005 11.1079 11.031C11.1216 11.0947 11.1471 11.1553 11.183 11.2099C11.1958 11.233 11.2061 11.2571 11.2211 11.2793C11.2548 11.3293 11.2933 11.376 11.3362 11.4185L13.5695 13.628C13.7419 13.7981 13.9755 13.8936 14.219 13.8934C14.4625 13.8933 14.6959 13.7975 14.8681 13.6271C15.0403 13.4568 15.1371 13.2258 15.1373 12.9849C15.1374 12.744 15.0409 12.5129 14.869 12.3423L12.9044 10.3986V5.99226C12.9044 5.75112 12.8076 5.51985 12.6352 5.34934C12.4629 5.17882 12.2292 5.08302 11.9854 5.08301Z" fill="white"/>
</svg>
