<svg width="25" height="21" viewBox="0 0 25 21" fill="none" xmlns="http://www.w3.org/2000/svg">
<g id="Group">
<path id="Vector" d="M1.78571 0C0.799494 0 0 0.799461 0 1.78571C0 2.7719 0.799494 3.57143 1.78571 3.57143H23.2143C24.2005 3.57143 25 2.7719 25 1.78571C25 0.799461 24.2005 0 23.2143 0H1.78571ZM1.78571 8.33333C0.799494 8.33333 0 9.1328 0 10.119C0 11.1052 0.799494 11.9048 1.78571 11.9048H23.2143C24.2005 11.9048 25 11.1052 25 10.119C25 9.1328 24.2005 8.33333 23.2143 8.33333H1.78571ZM1.78571 16.6667C0.799494 16.6667 0 17.4661 0 18.4524C0 19.4386 0.799494 20.2381 1.78571 20.2381H23.2143C24.2005 20.2381 25 19.4386 25 18.4524C25 17.4661 24.2005 16.6667 23.2143 16.6667H1.78571Z" fill="#004877"/>
</g>
</svg>
