<svg width="26" height="26" viewBox="0 0 26 26" fill="none" xmlns="http://www.w3.org/2000/svg">
<g id="Group" clip-path="url(#clip0_641_38341)">
<path id="Vector" d="M17.333 11.917C19.1313 11.917 20.5722 10.4653 20.5722 8.66699C20.5722 6.86866 19.1313 5.41699 17.333 5.41699C15.5347 5.41699 14.083 6.86866 14.083 8.66699C14.083 10.4653 15.5347 11.917 17.333 11.917ZM8.66634 11.917C10.4647 11.917 11.9055 10.4653 11.9055 8.66699C11.9055 6.86866 10.4647 5.41699 8.66634 5.41699C6.86801 5.41699 5.41634 6.86866 5.41634 8.66699C5.41634 10.4653 6.86801 11.917 8.66634 11.917ZM8.66634 14.0837C6.14217 14.0837 1.08301 15.3512 1.08301 17.8753V19.5003C1.08301 20.0962 1.57051 20.5837 2.16634 20.5837H15.1663C15.7622 20.5837 16.2497 20.0962 16.2497 19.5003V17.8753C16.2497 15.3512 11.1905 14.0837 8.66634 14.0837ZM17.333 14.0837C17.0188 14.0837 16.6613 14.1053 16.2822 14.1378C16.3038 14.1487 16.3147 14.1703 16.3255 14.1812C17.5605 15.0803 18.4163 16.2828 18.4163 17.8753V19.5003C18.4163 19.8795 18.3405 20.2478 18.2213 20.5837H23.833C24.4288 20.5837 24.9163 20.0962 24.9163 19.5003V17.8753C24.9163 15.3512 19.8572 14.0837 17.333 14.0837Z" fill="white"/>
</g>
<defs>
<clipPath id="clip0_641_38341">
<rect width="26" height="26" fill="white"/>
</clipPath>
</defs>
</svg>
